<svg id="Layer_1" enable-background="new 0 0 50 50" height="512" viewBox="0 0 50 50" width="512" xmlns="http://www.w3.org/2000/svg"><g id="XMLID_1072_"><path id="XMLID_1115_" d="m48.854 16.593-15.447-15.447c-.198-.198-.527-.194-.724.006-10.42 10.577-10.292 17.333-10.292 17.333l9.124 9.124s6.756.128 17.333-10.292c.199-.197.204-.526.006-.724z" fill="#fc6"/><path id="XMLID_1114_" d="m22.391 18.485-19.501 19.502c-2.519 2.52-2.519 6.604 0 9.124s6.604 2.52 9.123 0l19.502-19.502z" fill="#666"/><path id="XMLID_1113_" d="m3.115 37.761-.225.226c-2.519 2.52-2.52 6.604 0 9.124 2.519 2.519 6.604 2.519 9.123 0l.226-.226z" fill="#fc6"/><path id="XMLID_1112_" d="m48.037 17.903-15.933-15.934c-.202-.202-.537-.194-.732.015-1.277 1.367-2.399 2.699-3.382 3.973-.155.201-.132.484.047.664l15.349 15.349c.18.18.462.202.664.047 1.275-.983 2.606-2.104 3.973-3.382.208-.195.216-.53.014-.732z" fill="#666"/><path id="XMLID_1111_" d="m22.352 27.648c-.837-.837-2.193-.837-3.029 0l-3.993 3.993c-.837.836-.837 2.193 0 3.029.837.837 2.193.837 3.029 0l3.993-3.993c.837-.836.837-2.192 0-3.029z" fill="#e6e6e6"/><path id="XMLID_1110_" d="m18.328 31.672c-.585-.585-.585-1.536 0-2.121l1.449-1.449c.585-.585 1.536-.585 2.121 0s.585 1.536 0 2.121l-1.449 1.449c-.585.585-1.536.585-2.121 0z" fill="#515151"/></g></svg>